<?xml version="1.0" encoding="UTF-8" standalone="no"?>
<!-- Created with Inkscape (http://www.inkscape.org/) -->

<svg
   xmlns:dc="http://purl.org/dc/elements/1.1/"
   xmlns:cc="http://creativecommons.org/ns#"
   xmlns:rdf="http://www.w3.org/1999/02/22-rdf-syntax-ns#"
   xmlns:svg="http://www.w3.org/2000/svg"
   xmlns="http://www.w3.org/2000/svg"
   xmlns:xlink="http://www.w3.org/1999/xlink"
   xmlns:sodipodi="http://sodipodi.sourceforge.net/DTD/sodipodi-0.dtd"
   xmlns:inkscape="http://www.inkscape.org/namespaces/inkscape"
   width="129.16499mm"
   height="129.16499mm"
   viewBox="0 0 129.16499 129.16499"
   version="1.1"
   id="svg8"
   inkscape:version="0.92.4 5da689c313, 2019-01-14"
   sodipodi:docname="icon.svg"
   inkscape:export-filename="/home/florian/icon.png"
   inkscape:export-xdpi="96"
   inkscape:export-ydpi="96">
  <defs
     id="defs2">
    <linearGradient
       inkscape:collect="always"
       id="linearGradient890">
      <stop
         style="stop-color:#009f9d;stop-opacity:1;"
         offset="0"
         id="stop886" />
      <stop
         style="stop-color:#009f9d;stop-opacity:0;"
         offset="1"
         id="stop888" />
    </linearGradient>
    <linearGradient
       inkscape:collect="always"
       id="linearGradient882">
      <stop
         style="stop-color:#aa4400;stop-opacity:1;"
         offset="0"
         id="stop878" />
      <stop
         style="stop-color:#aa4400;stop-opacity:0;"
         offset="1"
         id="stop880" />
    </linearGradient>
    <linearGradient
       inkscape:collect="always"
       xlink:href="#linearGradient882"
       id="linearGradient884"
       x1="242.63579"
       y1="155.73834"
       x2="282.89026"
       y2="193.91393"
       gradientUnits="userSpaceOnUse" />
    <linearGradient
       inkscape:collect="always"
       xlink:href="#linearGradient890"
       id="linearGradient892"
       x1="205.40514"
       y1="164.62077"
       x2="245.8486"
       y2="200.7175"
       gradientUnits="userSpaceOnUse"
       gradientTransform="matrix(1.1526678,0,0,1.1526678,-48.896694,-33.433019)" />
  </defs>
  <sodipodi:namedview
     id="base"
     pagecolor="#ffffff"
     bordercolor="#666666"
     borderopacity="1.0"
     inkscape:pageopacity="0.0"
     inkscape:pageshadow="2"
     inkscape:zoom="1.4"
     inkscape:cx="368.59132"
     inkscape:cy="257.33788"
     inkscape:document-units="mm"
     inkscape:current-layer="layer1"
     showgrid="false"
     fit-margin-top="0"
     fit-margin-left="0"
     fit-margin-right="0"
     fit-margin-bottom="0"
     inkscape:window-width="1920"
     inkscape:window-height="1168"
     inkscape:window-x="1920"
     inkscape:window-y="0"
     inkscape:window-maximized="1" />
  <metadata
     id="metadata5">
    <rdf:RDF>
      <cc:Work
         rdf:about="">
        <dc:format>image/svg+xml</dc:format>
        <dc:type
           rdf:resource="http://purl.org/dc/dcmitype/StillImage" />
        <dc:title />
      </cc:Work>
    </rdf:RDF>
  </metadata>
  <g
     inkscape:label="Ebene 1"
     inkscape:groupmode="layer"
     id="layer1"
     transform="translate(-41.363476,-79.867985)">
    <rect
       style="fill:#2d2d2d;fill-opacity:1;stroke:#565656;stroke-width:1.16499996;stroke-linejoin:round;stroke-miterlimit:4;stroke-dasharray:none;stroke-opacity:0.00491399"
       id="rect815"
       width="128"
       height="128"
       x="41.945976"
       y="80.450485"
       rx="16"
       ry="16" />
    <path
       style="fill:none;stroke:#919191;stroke-width:5.69999981;stroke-linecap:butt;stroke-linejoin:miter;stroke-miterlimit:4;stroke-dasharray:none;stroke-opacity:1"
       d="m 87.501488,101.39732 58.586312,38.55357 -43.65625,6.80357 -27.781253,41.19941 z"
       id="path833"
       inkscape:connector-curvature="0" />
    <path
       id="circle823"
       style="fill:#aa4400;fill-opacity:1;stroke:#2d2d2d;stroke-width:3.61030269;stroke-linejoin:round;stroke-miterlimit:4;stroke-dasharray:none;stroke-opacity:1"
       d="m 154.66977,138.60242 a 9.2993898,9.2993898 0 0 1 -9.29939,9.29939 9.2993898,9.2993898 0 0 1 -9.29939,-9.29939 9.2993898,9.2993898 0 0 1 9.29939,-9.29939 9.2993898,9.2993898 0 0 1 9.29939,9.29939 z M 97.675733,102.81493 a 9.2993898,9.2993898 0 0 1 -9.29939,9.29939 9.2993898,9.2993898 0 0 1 -9.29939,-9.29939 9.2993898,9.2993898 0 0 1 9.29939,-9.299386 9.2993898,9.2993898 0 0 1 9.29939,9.299386 z m -12.00251,76.7118 a 9.2993898,9.2993898 0 0 1 -9.29939,9.29939 9.2993898,9.2993898 0 0 1 -9.29939,-9.29939 9.2993898,9.2993898 0 0 1 9.29939,-9.29939 9.2993898,9.2993898 0 0 1 9.29939,9.29939 z" />
    <circle
       style="fill:#009f9d;fill-opacity:1;stroke:#2d2d2d;stroke-width:3.61030269;stroke-linejoin:round;stroke-miterlimit:4;stroke-dasharray:none;stroke-opacity:1"
       id="circle825"
       cx="106.8645"
       cy="145.95627"
       r="9.2993898" />
    <path
       style="fill:url(#linearGradient884);fill-opacity:1;stroke:none;stroke-width:3.61030269;stroke-linejoin:round;stroke-miterlimit:4;stroke-dasharray:none;stroke-opacity:1"
       d="m 254.22822,159.2669 c -4.16041,0 -7.49412,3.33369 -7.49412,7.49412 0,4.1604 50.01377,50.5834 54.17418,50.5834 4.16042,0 7.49411,-3.33371 7.49411,-7.49411 0,-4.16043 -50.01375,-50.58341 -54.17417,-50.58341 z"
       id="path874" />
  </g>
</svg>
